<?xml version="1.0" encoding="UTF-8" standalone="no"?>
<!-- Created with Inkscape (http://www.inkscape.org/) -->

<svg
   width="90px"
   height="20px"
   viewBox="0 0 144.50496 25.407768"
   version="1.1"
   id="svg1"
   xml:space="preserve"
   xmlns:inkscape="http://www.inkscape.org/namespaces/inkscape"
   xmlns:sodipodi="http://sodipodi.sourceforge.net/DTD/sodipodi-0.dtd"
   xmlns="http://www.w3.org/2000/svg"
   xmlns:svg="http://www.w3.org/2000/svg"><sodipodi:namedview
     id="namedview1"
     pagecolor="#ffffff"
     bordercolor="#000000"
     borderopacity="0.25"
     inkscape:showpageshadow="2"
     inkscape:pageopacity="0.0"
     inkscape:pagecheckerboard="0"
     inkscape:deskcolor="#d1d1d1"
     inkscape:document-units="mm" /><defs
     id="defs1" /><g
     inkscape:label="Camada 1"
     inkscape:groupmode="layer"
     id="layer1"
     transform="translate(-40.606042,-133.08216)"><path
       style="fill:#000000"
       d="m 45.592261,157.97379 c -0.603928,-0.66733 -0.588833,-1.3703 0.11368,-5.29416 l 0.580755,-3.24378 -2.842114,-2.7402 c -2.219434,-2.13984 -2.84133,-2.90574 -2.838533,-3.49582 0.0062,-1.30064 1.00199,-1.7769 4.848249,-2.31871 1.914489,-0.26969 3.569783,-0.57729 3.678431,-0.68356 0.108648,-0.10626 0.899413,-1.62332 1.757255,-3.37124 1.650399,-3.36281 2.272166,-3.97629 3.673531,-3.62457 0.596224,0.14965 1.051486,0.82676 2.46831,3.67115 l 1.737246,3.48766 3.681794,0.50558 c 3.054857,0.41949 3.791461,0.61525 4.325835,1.14962 1.142471,1.14247 0.870207,1.7114 -2.215297,4.62913 l -2.859339,2.70385 0.649459,3.71822 c 0.728017,4.16797 0.610403,4.97406 -0.77654,5.32216 -0.633288,0.15895 -1.447303,-0.14621 -4.212967,-1.57936 l -3.428013,-1.77638 -3.239998,1.72826 c -3.427869,1.82848 -4.346461,2.04673 -5.101744,1.21215 z m 29.44848,-0.0483 c -0.700501,-0.7005 -0.700335,-0.71478 0.05827,-5.01837 l 0.622718,-3.53268 -2.568659,-2.46102 c -2.969818,-2.84538 -3.302134,-3.33794 -2.923659,-4.3334 0.384181,-1.01047 0.863266,-1.1821 4.839119,-1.73357 l 3.555569,-0.49317 1.665542,-3.3755 c 1.690709,-3.4265 2.081892,-3.88784 3.29658,-3.88784 0.931302,0 1.311181,0.50258 3.122981,4.13175 l 1.569577,3.14398 2.482646,0.34374 c 4.061861,0.5624 4.873991,0.75288 5.456151,1.27973 1.082584,0.97972 0.73006,1.72781 -2.24249,4.75893 l -2.796762,2.85187 0.53648,3.10444 c 0.671189,3.88397 0.675228,4.73038 0.02538,5.31848 -0.835571,0.75618 -1.604513,0.56302 -5.038885,-1.26578 l -3.254192,-1.73286 -3.31739,1.73286 c -1.824565,0.95307 -3.588997,1.73286 -3.920961,1.73286 -0.331964,0 -0.857571,-0.254 -1.168015,-0.56445 z m 29.746139,0.34846 c -0.90572,-0.60477 -0.95145,-1.37615 -0.30258,-5.10459 l 0.64242,-3.6914 -2.76632,-2.75594 c -2.17063,-2.16247 -2.76633,-2.92421 -2.76633,-3.53734 0,-1.40695 0.68667,-1.7408 4.76963,-2.31891 l 3.76526,-0.53312 1.69401,-3.4836 c 1.32391,-2.7225 1.84057,-3.52038 2.36479,-3.65195 1.48937,-0.37381 1.86465,-0.002 3.6834,3.65104 l 1.74264,3.50001 3.75798,0.53095 c 4.07221,0.57535 4.75118,0.90483 4.75118,2.30558 0,0.61313 -0.5957,1.37487 -2.76632,3.53734 l -2.76632,2.75594 0.64242,3.6914 c 0.49826,2.86306 0.57123,3.82669 0.32518,4.29432 -0.76607,1.45596 -1.43488,1.37094 -5.39924,-0.68637 l -3.30016,-1.71263 -3.30016,1.71263 c -3.18032,1.65043 -4.10621,1.94085 -4.77148,1.49664 z m 29.14093,-0.30013 c -0.59594,-0.65851 -0.58469,-1.45538 0.0744,-5.26944 l 0.53648,-3.10444 -2.79676,-2.85187 c -2.97256,-3.03112 -3.32507,-3.77921 -2.24249,-4.75893 0.58216,-0.52685 1.39428,-0.71733 5.45615,-1.27973 l 2.48264,-0.34374 1.56958,-3.14398 c 1.8118,-3.62917 2.19168,-4.13175 3.12298,-4.13175 1.21469,0 1.60587,0.46134 3.29658,3.88784 l 1.66554,3.3755 3.55557,0.48754 c 3.67456,0.50386 4.65579,0.86512 4.96091,1.82649 0.26917,0.84807 -0.23904,1.55729 -3.03645,4.23749 l -2.55966,2.45241 0.64779,3.74434 c 0.72245,4.17588 0.61388,4.94515 -0.74612,5.28649 -0.62634,0.1572 -1.46219,-0.15374 -4.23134,-1.57408 l -3.45082,-1.76997 -3.23563,1.72297 c -3.42931,1.82611 -4.31758,2.03758 -5.06937,1.20686 z m 29.26203,-0.21903 c -0.45758,-0.69836 -0.44907,-0.92712 0.17013,-4.57209 l 0.65181,-3.83694 -2.85774,-2.70235 c -3.08384,-2.91615 -3.35608,-3.48524 -2.2137,-4.62762 0.53437,-0.53437 1.27097,-0.73013 4.32583,-1.14962 l 3.6818,-0.50558 1.73724,-3.48766 c 1.41683,-2.84439 1.87209,-3.5215 2.46831,-3.67115 1.41157,-0.35428 2.00762,0.24808 3.61268,3.6509 0.83319,1.76641 1.6335,3.28495 1.77845,3.37454 0.14495,0.0896 1.82402,0.38369 3.73126,0.65357 3.83209,0.54226 4.82892,1.02037 4.83508,2.31907 0.003,0.59008 -0.6191,1.35598 -2.83854,3.49582 l -2.84211,2.7402 0.58075,3.24378 c 0.71315,3.98327 0.72241,4.74794 0.0647,5.3432 -0.84165,0.76168 -1.65854,0.55828 -5.08441,-1.266 l -3.25459,-1.73307 -3.29342,1.73307 c -3.67997,1.93649 -4.53241,2.09842 -5.25348,0.99793 z m 8.51201,-6.59124 c 0.31044,0.002 1.49939,0.4997 2.64209,1.10621 l 2.07765,1.10275 -0.18486,-0.89851 c -0.10167,-0.49418 -0.26053,-1.68485 -0.35303,-2.64593 l -0.16817,-1.74741 1.77734,-1.85092 c 0.97753,-1.018 1.68628,-1.85091 1.575,-1.85091 -0.96505,0 -4.37951,-0.6893 -4.82602,-0.97425 -0.31044,-0.19813 -1.00455,-1.27229 -1.54245,-2.38704 l -0.978,-2.02681 -1.06595,2.11852 c -0.58627,1.16518 -1.28916,2.23696 -1.56199,2.38173 -0.27283,0.14477 -1.48963,0.42269 -2.70399,0.61759 l -2.20794,0.35438 1.75666,1.77241 1.75665,1.77241 -0.18503,1.92497 c -0.10176,1.05874 -0.26354,2.2784 -0.3595,2.71036 l -0.17448,0.7854 2.08079,-1.1342 c 1.14443,-0.62381 2.33479,-1.13265 2.64523,-1.13075 z"
       id="path1" /></g></svg>
