<svg xmlns="http://www.w3.org/2000/svg" xmlns:xlink="http://www.w3.org/1999/xlink" width="150" zoomAndPan="magnify" viewBox="0 0 112.5 112.499997" height="150" preserveAspectRatio="xMidYMid meet" version="1.0"><defs><clipPath id="21d6539ca4"><path d="M 34.105469 14.164062 L 102.386719 14.164062 L 102.386719 38 L 34.105469 38 Z M 34.105469 14.164062 " clip-rule="nonzero"/></clipPath></defs><g clip-path="url(#21d6539ca4)"><path fill="#000000" d="M 79.667969 21.933594 C 81.335938 22.269531 80.867188 24.703125 79.199219 24.363281 C 79.035156 24.332031 78.871094 24.300781 78.710938 24.265625 C 77.042969 23.929688 77.511719 21.492188 79.179688 21.832031 C 79.347656 21.863281 79.507812 21.894531 79.667969 21.933594 Z M 62.25 21.882812 C 62.15625 21.945312 62.054688 22.003906 61.960938 22.0625 C 60.566406 22.933594 62.0625 25.027344 63.457031 24.15625 C 63.554688 24.097656 63.648438 24.035156 63.746094 23.976562 C 65.136719 23.105469 63.644531 21.011719 62.25 21.882812 Z M 46.3125 18.425781 C 45.351562 17.078125 43.1875 18.429688 44.148438 19.777344 C 45.109375 21.121094 47.28125 19.773438 46.3125 18.425781 Z M 95.082031 35.304688 C 94.914062 35.273438 94.753906 35.242188 94.59375 35.207031 C 92.925781 34.871094 92.449219 37.308594 94.117188 37.644531 C 94.285156 37.675781 94.445312 37.710938 94.605469 37.742188 C 96.273438 38.078125 96.75 35.644531 95.082031 35.304688 Z M 72.476562 15.390625 C 72.410156 15.296875 72.34375 15.203125 72.277344 15.113281 C 71.691406 14.289062 70.378906 13.972656 69.53125 14.558594 C 68.679688 15.144531 68.402344 16.261719 69.027344 17.136719 C 69.097656 17.230469 69.164062 17.324219 69.230469 17.417969 C 69.816406 18.238281 71.125 18.558594 71.976562 17.972656 C 72.824219 17.382812 73.101562 16.269531 72.476562 15.390625 Z M 41.261719 26.023438 C 39.816406 24.007812 36.570312 26.035156 38.019531 28.054688 C 39.457031 30.070312 42.710938 28.046875 41.261719 26.023438 Z M 51.859375 23.304688 C 51.828125 23.457031 51.796875 23.609375 51.769531 23.761719 C 51.617188 24.546875 52.910156 24.808594 53.0625 24.023438 C 53.09375 23.875 53.121094 23.714844 53.152344 23.566406 C 53.304688 22.78125 52.011719 22.519531 51.859375 23.304688 Z M 35.296875 30.964844 C 34.816406 30.289062 33.734375 30.964844 34.214844 31.640625 C 34.695312 32.3125 35.777344 31.636719 35.296875 30.964844 Z M 90.4375 36.855469 C 89.953125 36.183594 88.871094 36.859375 89.355469 37.53125 C 89.839844 38.207031 90.921875 37.53125 90.4375 36.855469 Z M 88.082031 32.324219 C 87.988281 32.382812 87.886719 32.445312 87.792969 32.503906 C 87.097656 32.9375 87.84375 33.984375 88.542969 33.550781 C 88.640625 33.488281 88.734375 33.429688 88.832031 33.371094 C 89.527344 32.933594 88.777344 31.886719 88.082031 32.324219 Z M 79.089844 16.90625 C 78.609375 16.230469 77.527344 16.90625 78.007812 17.582031 C 78.492188 18.257812 79.574219 17.582031 79.089844 16.90625 Z M 71.300781 21.777344 C 70.824219 21.101562 69.738281 21.777344 70.222656 22.449219 C 70.703125 23.121094 71.785156 22.445312 71.300781 21.777344 Z M 88.941406 18.417969 C 88.457031 17.746094 87.375 18.421875 87.855469 19.09375 C 88.339844 19.769531 89.421875 19.09375 88.941406 18.417969 Z M 101.324219 33.328125 C 101.230469 33.390625 101.132812 33.449219 101.039062 33.511719 C 100.339844 33.945312 101.085938 34.992188 101.785156 34.558594 C 101.882812 34.496094 101.976562 34.4375 102.074219 34.375 C 102.769531 33.941406 102.019531 32.894531 101.324219 33.328125 Z M 94.8125 31.296875 C 94.328125 30.621094 93.246094 31.296875 93.730469 31.972656 C 94.207031 32.648438 95.289062 31.972656 94.8125 31.296875 Z M 78.746094 35.6875 C 78.269531 35.015625 77.1875 35.6875 77.664062 36.363281 C 78.148438 37.035156 79.230469 36.363281 78.746094 35.6875 Z M 82.433594 29.75 C 81.953125 29.078125 80.871094 29.753906 81.351562 30.425781 C 81.832031 31.101562 82.914062 30.425781 82.433594 29.75 Z M 39.980469 21.171875 C 39.503906 20.5 38.421875 21.175781 38.898438 21.847656 C 39.382812 22.523438 40.464844 21.847656 39.980469 21.171875 Z M 39.980469 21.171875 " fill-opacity="1" fill-rule="nonzero"/></g><path fill="#000000" d="M 17.339844 92.316406 L 17.339844 28.183594 C 17.339844 27.589844 17.535156 27.109375 17.929688 26.753906 C 18.320312 26.394531 18.796875 26.214844 19.359375 26.214844 L 44.40625 26.214844 C 48.410156 26.214844 52.167969 26.765625 55.675781 27.863281 C 59.191406 28.949219 62.375 30.5 65.226562 32.511719 C 68.078125 34.53125 70.515625 36.945312 72.542969 39.757812 C 74.582031 42.5625 76.148438 45.699219 77.25 49.167969 C 78.359375 52.628906 78.914062 56.332031 78.914062 60.277344 C 78.914062 64.191406 78.359375 67.875 77.25 71.332031 C 76.148438 74.78125 74.574219 77.90625 72.527344 80.707031 C 70.488281 83.511719 68.035156 85.929688 65.175781 87.96875 C 62.320312 90 59.132812 91.5625 55.601562 92.65625 C 52.082031 93.742188 48.292969 94.285156 44.226562 94.285156 L 19.414062 94.285156 C 18.8125 94.285156 18.320312 94.101562 17.929688 93.730469 C 17.535156 93.351562 17.339844 92.878906 17.339844 92.316406 Z M 30.023438 82.28125 L 44.191406 82.28125 C 47.382812 82.28125 50.324219 81.71875 53.007812 80.582031 C 55.703125 79.4375 58.035156 77.859375 60.003906 75.839844 C 61.972656 73.828125 63.496094 71.488281 64.582031 68.828125 C 65.679688 66.171875 66.230469 63.320312 66.230469 60.277344 C 66.230469 57.140625 65.679688 54.230469 64.582031 51.546875 C 63.496094 48.855469 61.976562 46.492188 60.023438 44.464844 C 58.0625 42.425781 55.753906 40.84375 53.097656 39.722656 C 50.4375 38.605469 47.527344 38.042969 44.367188 38.042969 L 30.023438 38.09375 Z M 30.023438 82.28125 " fill-opacity="1" fill-rule="nonzero"/></svg>